<?xml version="1.0" encoding="utf-8"?>
<!-- Generator: Adobe Illustrator 26.0.3, SVG Export Plug-In . SVG Version: 6.00 Build 0)  -->
<svg version="1.0" id="katman_1" xmlns="http://www.w3.org/2000/svg" xmlns:xlink="http://www.w3.org/1999/xlink" x="0px" y="0px"
	 viewBox="0 0 800 600" style="enable-background:new 0 0 800 600;" xml:space="preserve"
	 >
<style type="text/css">
	.st0{clip-path:url(#SVGID_00000013159946493447111460000005419212589712594862_);}
	.st1{fill-rule:evenodd;clip-rule:evenodd;fill:#1A5493;}
	.st2{fill-rule:evenodd;clip-rule:evenodd;fill:#FFF212;}
</style>
<g>
	<defs>
		<rect id="SVGID_1_" x="188" y="80.1" width="433.4" height="438.4"/>
	</defs>
	<clipPath id="SVGID_00000017492512585851585880000013389100798314055048_">
		<use xlink:href="#SVGID_1_"  style="overflow:visible;"/>
	</clipPath>

		<g transform="matrix(.8833 0 0 -.8935 -.3 303.79)" style="clip-path:url(#SVGID_00000017492512585851585880000013389100798314055048_);">
		<path class="st1" d="M295.4,250.4h327l4.2-0.1l4.1-0.3l4.1-0.5l4-0.7l4-0.9l3.9-1.1l3.8-1.3l3.7-1.5l3.6-1.6l3.5-1.8l3.4-2
			l3.3-2.1l3.2-2.3l3.1-2.5l3-2.6l2.8-2.7l2.7-2.8l2.6-2.9l2.5-3.1l2.3-3.2l2.1-3.3l2-3.4l1.8-3.5l1.7-3.6l1.4-3.7l1.3-3.8l1.1-3.9
			l0.9-4l0.7-4l0.5-4.1l0.3-4.2l0.1-4.2v-327.1l-0.1-4.2l-0.3-4.1l-0.5-4.1l-0.7-4l-0.9-4l-1.1-3.9l-1.3-3.8l-1.4-3.7l-1.7-3.6
			l-1.8-3.5l-2-3.4l-2.1-3.3l-2.3-3.2l-2.5-3.1l-2.6-3l-2.7-2.9l-2.8-2.7l-3-2.6l-3.1-2.4l-3.2-2.3l-3.3-2.1l-3.4-2l-3.5-1.8
			l-3.6-1.7l-3.7-1.4l-3.8-1.3l-3.9-1.1l-4-0.9l-4-0.7l-4.1-0.5l-4.1-0.3l-4.2-0.1h-327l-4.2,0.1l-4.1,0.3l-4.1,0.5l-4,0.7l-4,0.9
			l-3.9,1.1l-3.8,1.3l-3.7,1.4l-3.6,1.7l-3.5,1.8l-3.4,2l-3.3,2.1l-3.2,2.3l-3.1,2.4l-3,2.6l-2.8,2.7l-2.7,2.9l-2.5,3l-2.4,3.1
			l-2.3,3.2l-2.1,3.3l-2,3.4l-1.8,3.5l-1.7,3.6l-1.4,3.7l-1.3,3.8l-1.1,3.9l-0.9,4l-0.7,4l-0.5,4.1l-0.3,4.1l-0.1,4.2v327.1l0.1,4.2
			l0.3,4.2l0.5,4.1l0.7,4l0.9,4l1.1,3.9l1.3,3.8l1.4,3.7l1.7,3.6l1.8,3.5l2,3.4l2.1,3.3l2.3,3.2l2.4,3.1l2.5,2.9l2.7,2.8l2.8,2.7
			l3,2.6l3.1,2.5l3.2,2.3l3.3,2.1l3.4,2l3.5,1.8l3.6,1.6l3.7,1.5l3.8,1.3l3.9,1.1l4,0.9l4,0.7l4.1,0.5l4.1,0.3
			C291.2,250.3,295.4,250.4,295.4,250.4z"/>
		<path class="st2" d="M254.5-158.5h38.1V5.1h-38.1V-158.5z M463.6-32.3h-2.2l-2.2-0.1l-2.1-0.1l-2-0.1l-2-0.1l-2-0.2l-2-0.2
			l-1.9-0.2l-1.9-0.3l-1.8-0.3l-1.8-0.3l-1.8-0.3l-1.7-0.3l-1.7-0.4l-1.7-0.4l-1.6-0.4l-1.6-0.4l-1.5-0.4l-1.5-0.5l-1.4-0.5
			l-1.4-0.5l-1.3-0.5l-1.3-0.5l-1.3-0.5l-1.2-0.5l-1.2-0.5l-1.1-0.5l-1.1-0.5l-1-0.5l-1-0.5l-1-0.5l-0.9-0.5l7.2-24.1l0.8,0.5
			l0.9,0.5l0.9,0.5l0.9,0.5l1,0.5l1,0.5l1,0.5l1,0.4l1.1,0.4l1.1,0.4l1.1,0.4l1.1,0.4l1.1,0.4l1.2,0.4l1.2,0.4l1.2,0.3l1.2,0.3
			l1.2,0.3l1.3,0.3l1.2,0.3l1.3,0.3l1.3,0.2l1.3,0.2l1.3,0.2l1.3,0.2l1.3,0.1l1.3,0.2l1.3,0.1l1.3,0.1l1.3,0.1l1.3,0h1.3l2,0l2-0.1
			l1.8-0.2l1.7-0.2l1.7-0.3l1.6-0.3l1.5-0.4l1.4-0.4l1.3-0.5l1.2-0.5l1.1-0.5l1-0.5l1-0.6l0.9-0.6l0.9-0.6l0.8-0.6l0.7-0.7l0.7-0.7
			l0.6-0.7l0.5-0.7L482-68l0.4-0.7l0.4-0.7l0.3-0.7l0.3-0.7l0.2-0.7l0.2-0.7l0.2-0.6l0.1-0.6l0.1-0.6l0.1-0.6v-1.9l-4.6,0l-4.5-0.1
			l-4.4-0.2l-4.2-0.3l-4.1-0.4l-4-0.5l-3.9-0.6l-3.7-0.7l-3.6-0.8l-3.5-0.9l-3.4-1l-3.2-1.1l-3.1-1.2l-2.9-1.3l-2.8-1.4l-2.7-1.4
			l-2.5-1.5l-2.4-1.6l-2.2-1.7l-2-1.8l-1.9-1.9l-1.7-2l-1.6-2.1l-1.5-2.2l-1.3-2.3l-1.1-2.4l-1-2.5l-0.8-2.6l-0.6-2.6l-0.5-2.7
			l-0.2-2.9l-0.1-2.9l0-1.7l0.1-1.7l0.2-1.7l0.3-1.7l0.4-1.7l0.5-1.7l0.5-1.7l0.6-1.7l0.7-1.6l0.8-1.6l0.9-1.6l1-1.5l1-1.5l1.1-1.4
			l1.2-1.4l1.3-1.3l1.4-1.3l1.4-1.2l1.5-1.2l1.6-1.1l1.7-1l1.8-1l1.8-0.9l1.9-0.8l2-0.7l2-0.6l2.2-0.6l2.2-0.5l2.3-0.4l2.4-0.3
			l2.5-0.2l2.5-0.1l1.5,0l1.5,0.1l1.5,0.1l1.5,0.1l1.4,0.2l1.4,0.2l1.4,0.2l1.4,0.2l1.4,0.3l1.4,0.3l1.3,0.3l1.3,0.4l1.3,0.4
			l1.3,0.4l1.3,0.5l1.2,0.5l1.2,0.5l1.2,0.6l1.2,0.6l1.1,0.6l1.1,0.6l1.1,0.6l1.1,0.7l1,0.7l1,0.7l1,0.8l1,0.8l0.9,0.8l0.9,0.8
			l0.9,0.9l0.8,0.9l0.8,0.9h0.4l4.2-12.7h31V-86l0,2.8l-0.1,2.7l-0.2,2.7l-0.3,2.6l-0.4,2.6l-0.5,2.6l-0.6,2.5l-0.7,2.4l-0.8,2.4
			l-0.9,2.3l-1.1,2.2l-1.1,2.2l-1.3,2.1l-1.4,2l-1.5,2l-1.6,1.9l-1.7,1.8l-1.9,1.7l-2,1.6l-2.1,1.5l-2.2,1.4l-2.4,1.3l-2.5,1.2
			l-2.7,1.1l-2.8,1l-3,0.8l-3.1,0.7l-3.2,0.6l-3.4,0.5l-3.6,0.3l-3.7,0.2C467.4-32.4,463.6-32.3,463.6-32.3z M485.4-113.2v-0.7
			l0-0.8l-0.1-0.8l-0.1-0.8l-0.1-0.8l-0.1-0.8l-0.1-0.8l-0.2-0.8l-0.1-0.3l-0.1-0.4l-0.1-0.4l-0.1-0.2l-0.1-0.3l-0.1-0.3l-0.3-0.8
			l-0.4-0.7l-0.4-0.7l-0.4-0.7l-0.5-0.7l-0.5-0.7l-0.5-0.7l-0.5-0.7l-0.6-0.7l-0.6-0.7l-0.6-0.6l-0.7-0.6l-0.7-0.6l-0.7-0.6
			l-0.8-0.6l-0.8-0.6l-0.8-0.5l-0.8-0.5l-0.9-0.5l-0.9-0.5l-0.9-0.4l-0.9-0.4l-0.9-0.4l-1-0.3l-1-0.3l-1-0.3l-1-0.2l-1-0.2l-1.1-0.2
			l-1.1-0.1l-1.1-0.1h-2.1l-1,0.1l-0.9,0.1l-0.9,0.1l-0.9,0.2l-0.9,0.2l-0.9,0.2l-0.8,0.2l-0.8,0.2l-0.8,0.3l-0.7,0.3l-0.7,0.4
			l-0.7,0.4l-0.6,0.4l-0.6,0.5l-0.6,0.5l-0.6,0.5l-0.5,0.6l-0.5,0.6l-0.5,0.6l-0.4,0.6l-0.4,0.6l-0.4,0.7l-0.3,0.7l-0.3,0.7
			l-0.3,0.8l-0.2,0.8l-0.2,0.8l-0.2,0.9l-0.1,0.9l-0.1,0.9l0,1l0,1.1l0.1,1l0.2,1l0.2,1l0.2,0.9l0.3,0.9l0.4,0.9l0.4,0.9l0.5,0.8
			l0.5,0.8l0.5,0.8l0.6,0.7l0.6,0.7l0.7,0.6l0.7,0.6l0.8,0.6l0.8,0.6l0.9,0.6l0.9,0.5l1,0.5l1,0.5l1,0.5l1,0.4l1.1,0.4l1.2,0.4
			l1.2,0.3l1.2,0.3l1.3,0.3l1.3,0.3l1.3,0.3l1.3,0.2l1.4,0.2l1.3,0.2l1.3,0.2l1.4,0.2l1.4,0.2l1.4,0.1l1.5,0.1l1.5,0.1l1.5,0.1
			l0.9,0l0.9,0l1,0h4.7V-113.2z M625.6-35.9v-72.9l-0.1-1l-0.1-1l-0.1-1l-0.2-1l-0.2-0.9l-0.3-0.9l-0.3-0.9l-0.3-0.7l-0.3-0.7
			l-0.4-0.7l-0.4-0.7l-0.4-0.7l-0.4-0.7l-0.5-0.7l-0.5-0.7l-0.5-0.7l-0.5-0.7l-0.6-0.7l-0.6-0.6l-0.6-0.6l-0.6-0.6l-0.7-0.6
			l-0.7-0.6l-0.7-0.6l-0.7-0.6l-0.8-0.5l-0.8-0.5l-0.9-0.4l-0.9-0.4l-0.9-0.4l-0.9-0.3l-0.9-0.3l-1-0.3l-1-0.2l-1-0.2l-1-0.2
			l-1.1-0.1l-1.1-0.1h-1.2l-1.4,0l-1.4,0.1l-1.4,0.2l-1.3,0.2l-1.2,0.3l-1.2,0.4l-1.1,0.4l-1.1,0.5l-1,0.5l-1,0.6l-1,0.7l-0.9,0.7
			l-0.8,0.8l-0.8,0.9l-0.7,0.9l-0.7,1l-0.7,1l-0.6,1.1l-0.6,1.1l-0.5,1.2l-0.5,1.2l-0.5,1.3l-0.4,1.3l-0.3,1.4l-0.3,1.4l-0.3,1.5
			l-0.2,1.5l-0.2,1.6l-0.1,1.6l-0.1,1.7l-0.1,1.7l0,1.8v64.9h-37.2v-73.5l0.1-1.7l0.1-1.7l0.1-1.7l0.1-1.7l0.1-1.6l0.2-1.6l0.2-1.6
			l0.2-1.5l0.2-1.5l0.3-1.4l0.3-1.4l0.3-1.4l0.4-1.3l0.4-1.3l0.4-1.3l0.4-1.3l0.5-1.2l0.5-1.2l0.5-1.2l0.5-1.1l0.5-1.1l0.6-1.1
			l0.6-1.1l0.6-1l0.6-1l0.6-1l0.7-0.9l0.7-0.9l0.7-0.9l0.7-0.9l0.7-0.8l0.8-0.8l0.8-0.8l0.8-0.8l0.8-0.7l0.9-0.7l0.8-0.7l0.9-0.6
			l0.9-0.6l0.9-0.6l0.9-0.6l1-0.5l1-0.5l1-0.5l1-0.5l1-0.4l1.1-0.4l1.1-0.4l1-0.3l1.1-0.3l1.1-0.3l1.1-0.3l1.1-0.2l1.1-0.2l1.2-0.2
			l1.2-0.2l1.2-0.2l1.2-0.1l1.2-0.1l1.2-0.1l1.2,0l1.3-0.1h2.4l1.1,0l1,0l1,0.1l1.1,0.1l1,0.1l1,0.1l1,0.2l1,0.1l1,0.2l1,0.2
			l0.9,0.2l0.9,0.2l0.9,0.2l0.9,0.2l0.9,0.2l1.6,0.6l1.6,0.6l1.5,0.6l1.5,0.6l1.4,0.7l1.4,0.7l1.3,0.7l1.3,0.7l1.2,0.8l1.2,0.8
			l1.1,0.8l1.1,0.8l1,0.8l1,0.9l0.9,0.9l0.9,0.9l0.8,0.9l0.8,0.9l0.7,0.8l0.7,0.8l0.6,0.8l0.6,0.8l0.5,0.7l0.5,0.7l4.8-17.4h30.2
			v122.6C663.4-35.9,625.6-35.9,625.6-35.9z M328.4,5.1v-40.9h-17.4v-27.9h17.4v-49.9l0-1.5l0-1.5l0-1.5l0.1-1.4l0.1-1.4l0.1-1.4
			l0.1-1.4l0.2-1.4l0.2-1.3l0.2-1.3l0.2-1.3l0.2-1.3l0.2-1.2l0.3-1.2l0.3-1.2l0.3-1.2l0.3-1.1l0.4-1.1l0.4-1.1l0.4-1l0.4-1l0.4-1
			l0.5-1l0.5-0.9l0.5-0.9l0.5-0.9l0.6-0.9l0.6-0.9l0.6-0.8l0.6-0.8l0.6-0.8l0.6-0.7l0.6-0.6l0.6-0.6l0.6-0.6l0.6-0.6l0.7-0.6
			l0.7-0.6l0.8-0.6l0.8-0.5l0.8-0.5l0.8-0.5l0.8-0.5l0.9-0.5l0.9-0.4l0.9-0.4l1-0.4l0.9-0.4l1-0.4l1-0.3l1-0.3l1-0.3l1-0.3l1.1-0.2
			l1.1-0.2l1.1-0.2l1.1-0.2l1.1-0.2l1.1-0.1l1.2-0.1l1.2-0.1l1.2-0.1l1.2,0l1.2,0l2,0l1.9,0.1l1.8,0.1l1.6,0.1l1.5,0.2l1.4,0.2
			l1.3,0.2l1.2,0.2l1.2,0.2l1.1,0.3l1,0.3l1,0.3l1.9,0.7l1.9,0.7v28.5l-0.5-0.2l-0.6-0.2l-0.8-0.2l-1-0.2l-1.1-0.2l-1.2-0.1
			l-1.3-0.1l-1.4,0l-1.2,0l-1.1,0.1l-1.1,0.1l-1,0.2l-1,0.2l-0.9,0.2l-0.9,0.3l-0.8,0.4l-0.8,0.4l-0.7,0.4l-0.7,0.5l-0.6,0.5
			l-0.6,0.6l-0.5,0.6l-0.5,0.7l-0.5,0.7l-0.4,0.7l-0.4,0.8l-0.4,0.8l-0.3,0.9l-0.3,1l-0.3,1l-0.2,1l-0.2,1l-0.1,1.1l-0.2,1.2
			l-0.1,1.2l-0.1,1.2l-0.1,1.3l-0.1,1.3l0,1.3v44.8h23.7v27.9h-23.7V5.1C365.5,5.1,328.4,5.1,328.4,5.1z M611.5,5.1l-23-33.1h26.6
			l32.4,33.1H611.5z"/>
	</g>
</g>
</svg>
